<?xml version="1.0" encoding="UTF-8" standalone="no"?>
<svg
   viewBox="0 0 640 640"
   version="1.1"
   id="svg1"
   sodipodi:docname="iconBTQ.svg"
   xml:space="preserve"
   inkscape:version="1.4.4 (dcaf3e7, 2026-05-05)"
   inkscape:export-filename="iconBTQ.png"
   inkscape:export-xdpi="4.8000002"
   inkscape:export-ydpi="4.8000002"
   xmlns:inkscape="http://www.inkscape.org/namespaces/inkscape"
   xmlns:sodipodi="http://sodipodi.sourceforge.net/DTD/sodipodi-0.dtd"
   xmlns="http://www.w3.org/2000/svg"
   xmlns:svg="http://www.w3.org/2000/svg"><defs
     id="defs1" /><sodipodi:namedview
     id="namedview1"
     pagecolor="#808080"
     bordercolor="#000000"
     borderopacity="0.25"
     inkscape:showpageshadow="2"
     inkscape:pageopacity="0.0"
     inkscape:pagecheckerboard="0"
     inkscape:deskcolor="#d1d1d1"
     inkscape:zoom="0.91923881"
     inkscape:cx="304.05592"
     inkscape:cy="264.89308"
     inkscape:window-width="1920"
     inkscape:window-height="1129"
     inkscape:window-x="3658"
     inkscape:window-y="202"
     inkscape:window-maximized="0"
     inkscape:current-layer="svg1" /><path
     fill="#000000"
     d="m 311.34638,549.89144 c 0,8.8 7.2,16 16,16 h 224 c 8.8,0 16,-7.2 16,-16 v -416 c 0,-8.8 -7.2,-16 -16,-16 h -224 c -8.8,0 -16,7.2 -16,16 z m 16,80 c -44.2,0 -80,-35.8 -80,-80 v -416 c 0,-44.199998 35.8,-79.999998 80,-79.999998 h 48 c 0,-17.7 14.3,-32 32,-32 h 64 c 17.7,0 32,14.3 32,32 h 48 c 44.2,0 80,35.8 80,79.999998 v 416 c 0,44.2 -35.8,80 -80,80 z"
     id="path1"
     style="fill:#ffffff;fill-opacity:1;stroke:none" /><path
     fill="#000000"
     d="M 160.13111,389.13546 242.23783,290.44461 112.87098,140.73643 V 337.8315 L 36.439023,255.57321 8.5972205,285.57217 104.4475,389.13546 8.5972205,492.69875 l 27.8418025,29.99896 76.431957,-82.2583 2.39404,189.45203 131.67222,-141.9696 z m 36.26528,-98.40423 -44.33408,47.76904 -0.26601,-95.8247 z m -44.33408,149.03941 44.33408,47.76905 -44.60009,48.05566 z"
     id="path1-8"
     style="stroke-width:0.92039;fill:#ffffff;fill-opacity:1;stroke:none" /><!--!Font Awesome Free 7.2.0 by @fontawesome - https://fontawesome.com License - https://fontawesome.com/license/free Copyright 2026 Fonticons, Inc.--><text
     xml:space="preserve"
     style="font-size:666.667px;writing-mode:lr-tb;direction:ltr;fill:#ffffff;fill-opacity:1;stroke:none"
     x="312.21484"
     y="537.40112"
     id="text1"><tspan
       sodipodi:role="line"
       id="tspan1"
       x="312.21484"
       y="537.40112"
       style="font-style:normal;font-variant:normal;font-weight:normal;font-stretch:normal;font-size:666.667px;font-family:'Miriam CLM';-inkscape-font-specification:'Miriam CLM';fill:#ffffff;fill-opacity:1;stroke:none">?</tspan></text></svg>
