<?xml version="1.0" encoding="UTF-8" standalone="no"?>
<svg
   viewBox="0 0 640 640"
   version="1.1"
   id="svg1"
   sodipodi:docname="iconBT.svg"
   inkscape:version="1.4.4 (dcaf3e7, 2026-05-05)"
   inkscape:export-filename="iconBT_64.png"
   inkscape:export-xdpi="9.6000004"
   inkscape:export-ydpi="9.6000004"
   xmlns:inkscape="http://www.inkscape.org/namespaces/inkscape"
   xmlns:sodipodi="http://sodipodi.sourceforge.net/DTD/sodipodi-0.dtd"
   xmlns="http://www.w3.org/2000/svg"
   xmlns:svg="http://www.w3.org/2000/svg">
  <defs
     id="defs1">
    <linearGradient
       id="swatch2"
       inkscape:swatch="solid">
      <stop
         style="stop-color:#12ac00;stop-opacity:1;"
         offset="0"
         id="stop2" />
    </linearGradient>
    <linearGradient
       id="swatch1"
       inkscape:swatch="solid">
      <stop
         style="stop-color:#12ac00;stop-opacity:1;"
         offset="0"
         id="stop1" />
    </linearGradient>
  </defs>
  <sodipodi:namedview
     id="namedview1"
     pagecolor="#808080"
     bordercolor="#000000"
     borderopacity="0.25"
     inkscape:showpageshadow="2"
     inkscape:pageopacity="0.0"
     inkscape:pagecheckerboard="0"
     inkscape:deskcolor="#d1d1d1"
     inkscape:zoom="1.0192281"
     inkscape:cx="444.94455"
     inkscape:cy="309.0574"
     inkscape:window-width="1784"
     inkscape:window-height="1100"
     inkscape:window-x="3888"
     inkscape:window-y="116"
     inkscape:window-maximized="0"
     inkscape:current-layer="svg1" />
  <!--!Font Awesome Free 7.2.0 by @fontawesome - https://fontawesome.com License - https://fontawesome.com/license/free Copyright 2026 Fonticons, Inc.-->
  <path
     fill="#000000"
     d="m 312.94367,134 c 0,-8.8 7.2,-16 16,-16 h 224 c 8.8,0 16,7.2 16,16 v 416 c 0,8.8 -7.2,16 -16,16 h -224 c -8.8,0 -16,-7.2 -16,-16 z m -64,416 c 0,44.2 35.8,80 80,80 h 224 c 44.2,0 80,-35.8 80,-80 V 134 c 0,-44.2 -35.8,-80 -80,-80 h -48 c 0,-17.7 -14.3,-32 -32,-32 h -64 c -17.7,0 -32,14.3 -32,32 h -48 c -44.2,0 -80,35.8 -80,80 z m 112,-56 c 0,13.3 10.7,24 24,24 h 112 c 13.3,0 24,-10.7 24,-24 V 270 c 0,-13.3 -10.7,-24 -24,-24 h -112 c -13.3,0 -24,10.7 -24,24 z"
     id="path1"
     style="fill:#12ac00;fill-opacity:1;stroke:#000000;stroke-opacity:1" />
  <path
     fill="#000000"
     d="M 162.53389,389.24402 244.64061,290.55317 115.27376,140.84499 V 337.94006 L 38.8418,255.68177 11,285.68073 106.85028,389.24402 11,492.80731 38.8418,522.80627 115.27376,440.54797 117.6678,630 249.34002,488.0304 Z m 36.26528,-98.40423 -44.33408,47.76904 -0.26601,-95.8247 z m -44.33408,149.03941 44.33408,47.76905 -44.60009,48.05566 z"
     id="path1-8"
     style="fill:#12ac00;fill-opacity:1;stroke:#000000;stroke-width:0.92039;stroke-opacity:1" />
  <text
     xml:space="preserve"
     style="font-size:666.667px;writing-mode:lr-tb;direction:ltr;fill:#1eff17;fill-opacity:1;stroke:#000000;stroke-opacity:1"
     x="358.67133"
     y="539.36597"
     id="text1"><tspan
       sodipodi:role="line"
       id="tspan1"
       x="358.67133"
       y="539.36597"
       style="font-style:normal;font-variant:normal;font-weight:normal;font-stretch:normal;font-size:666.667px;font-family:'Miriam CLM';-inkscape-font-specification:'Miriam CLM';fill:#1eff17;fill-opacity:1;stroke:#000000;stroke-opacity:1">!</tspan></text>
</svg>
