<?xml version="1.0" encoding="UTF-8" standalone="no"?>
<svg
   viewBox="0 0 640 640"
   version="1.1"
   id="svg1"
   sodipodi:docname="iconBT.svg"
   xml:space="preserve"
   inkscape:version="1.4.4 (dcaf3e7, 2026-05-05)"
   inkscape:export-filename="iconBT.png"
   inkscape:export-xdpi="4.8000002"
   inkscape:export-ydpi="4.8000002"
   xmlns:inkscape="http://www.inkscape.org/namespaces/inkscape"
   xmlns:sodipodi="http://sodipodi.sourceforge.net/DTD/sodipodi-0.dtd"
   xmlns="http://www.w3.org/2000/svg"
   xmlns:svg="http://www.w3.org/2000/svg"><defs
     id="defs1" /><sodipodi:namedview
     id="namedview1"
     pagecolor="#808080"
     bordercolor="#000000"
     borderopacity="0.25"
     inkscape:showpageshadow="2"
     inkscape:pageopacity="0.0"
     inkscape:pagecheckerboard="0"
     inkscape:deskcolor="#d1d1d1"
     inkscape:zoom="0.91923881"
     inkscape:cx="304.05592"
     inkscape:cy="199.62168"
     inkscape:window-width="1920"
     inkscape:window-height="1129"
     inkscape:window-x="3360"
     inkscape:window-y="194"
     inkscape:window-maximized="0"
     inkscape:current-layer="svg1" /><path
     fill="#000000"
     d="m 311.34638,549.89144 c 0,8.8 7.2,16 16,16 h 224 c 8.8,0 16,-7.2 16,-16 v -416 c 0,-8.8 -7.2,-16 -16,-16 h -224 c -8.8,0 -16,7.2 -16,16 z m 16,80 c -44.2,0 -80,-35.8 -80,-80 v -416 c 0,-44.199998 35.8,-79.999998 80,-79.999998 h 48 c 0,-17.7 14.3,-32 32,-32 h 64 c 17.7,0 32,14.3 32,32 h 48 c 44.2,0 80,35.8 80,79.999998 v 416 c 0,44.2 -35.8,80 -80,80 z"
     id="path1"
     style="fill:#ffffff;fill-opacity:1;stroke:none" /><path
     fill="#000000"
     d="M 160.13111,389.13546 242.23783,290.44461 112.87098,140.73643 V 337.8315 L 36.439023,255.57321 8.5972205,285.57217 104.4475,389.13546 8.5972205,492.69875 l 27.8418025,29.99896 76.431957,-82.2583 2.39404,189.45203 131.67222,-141.9696 z m 36.26528,-98.40423 -44.33408,47.76904 -0.26601,-95.8247 z m -44.33408,149.03941 44.33408,47.76905 -44.60009,48.05566 z"
     id="path1-8"
     style="stroke-width:0.92039;fill:#ffffff;fill-opacity:1;stroke:none" /><!--!Font Awesome Free 7.2.0 by @fontawesome - https://fontawesome.com License - https://fontawesome.com/license/free Copyright 2026 Fonticons, Inc.--><path
     style="fill:none;stroke-width:1.08786;fill-opacity:1"
     d="m 114.76467,548.8063 c -0.44882,-43.96706 -1.12102,-86.49413 -1.49377,-94.50459 l -0.67774,-14.56449 -38.062886,41.03695 -38.062883,41.03696 -8.993519,-9.61069 C 22.527437,506.91455 16.509577,500.30025 14.100851,497.50199 L 9.7213502,492.41425 56.805827,441.59166 C 82.70229,413.63923 104.02969,390.20385 104.20004,389.51304 104.37039,388.82221 87.780037,370.16844 67.33258,348.06021 46.885123,325.95197 25.507694,302.84 19.827181,296.70027 L 9.4989765,285.53712 14.812162,279.82761 c 2.922252,-3.14023 8.992148,-9.66172 13.48866,-14.49221 l 8.175474,-8.78269 37.514503,40.52683 c 20.632976,22.28975 37.879031,40.56578 38.324581,40.61338 0.44554,0.0476 0.93508,-43.82239 1.08785,-97.48885 l 0.27778,-97.57541 61.90325,71.73881 c 34.04679,39.45634 62.77418,72.71788 63.83864,73.91453 1.89215,2.12709 1.02581,3.2695 -38.7736,51.12926 -22.38995,26.92445 -40.49451,49.54146 -40.23237,50.26004 0.26215,0.71857 19.47071,22.91076 42.68569,49.31595 23.21497,26.40521 42.20904,48.40301 42.20904,48.88399 0,0.481 -26.72167,29.69005 -59.38151,64.90899 -32.65983,35.21895 -61.84929,66.71909 -64.86547,70.00032 l -5.48396,5.96586 z m 60.34048,-37.30211 22.06271,-23.72126 -2.10196,-2.3873 c -6.24208,-7.08949 -43.01973,-46.44549 -43.40266,-46.44549 -0.24815,0 -0.45117,21.82512 -0.45117,48.50026 0,26.67516 0.41183,48.33711 0.91518,48.13766 0.50335,-0.19944 10.8434,-11.03719 22.9779,-24.08387 z m -0.34486,-196.43997 c 11.87881,-12.79255 21.7249,-23.5764 21.88021,-23.96411 0.25854,-0.6454 -29.33701,-33.19463 -40.63125,-44.68628 l -4.79718,-4.88104 v 48.75792 c 0,28.2945 0.40928,48.60574 0.97519,48.39531 0.53636,-0.19944 10.69422,-10.82925 22.57303,-23.6218 z"
     id="path2" /><path
     style="fill:none;fill-opacity:1;stroke-width:1.08786;fill-rule:nonzero"
     d="m 311.67091,627.72841 c -25.62665,-5.71249 -45.03275,-21.15127 -56.10777,-44.63728 -8.11761,-17.21446 -7.62533,-0.64718 -7.28913,-245.31166 l 0.30122,-219.2031 3.41014,-9.53095 c 8.91561,-24.918047 26.08934,-41.895618 51.60428,-51.014839 6.53329,-2.335042 9.13984,-2.536938 39.6171,-3.068622 l 32.62368,-0.569129 0.72084,-5.04924 c 1.48352,-10.391721 7.59709,-18.818971 17.00306,-23.437848 l 6.23297,-3.060754 h 39.70676 c 39.06607,0 39.78751,0.03979 44.71076,2.465652 9.86478,4.860751 16.86663,14.247568 18.04421,24.19044 l 0.62701,5.294086 32.76451,0.395553 c 32.4506,0.391765 32.84232,0.42385 40.88447,3.348803 22.62244,8.22785 39.82046,24.657425 48.62306,46.450468 6.04698,14.97081 5.80943,5.28827 5.80053,236.42071 -0.006,143.77128 -0.38087,215.70325 -1.15036,220.46723 -2.83001,17.5208 -9.39301,30.08897 -22.77427,43.61275 -10.21267,10.32143 -18.97692,15.84207 -32.45441,20.44316 l -8.34021,2.84727 -124.01565,0.20115 c -100.13443,0.1624 -125.27256,-0.0791 -130.5428,-1.25385 z m 249.20125,-64.2537 c 1.62843,-1.2159 3.87075,-3.90747 4.98294,-5.98129 1.95403,-3.64349 2.01274,-10.94367 1.74214,-216.64072 l -0.28003,-212.87017 -2.24293,-3.00408 c -1.23361,-1.65224 -3.5948,-4.0134 -5.24709,-5.24701 -2.99066,-2.23285 -3.53064,-2.24293 -120.14093,-2.24293 H 322.54948 l -3.96365,2.46483 c -8.10854,5.04236 -7.45884,-14.33419 -7.45884,222.45306 v 212.62264 l 2.46936,3.69641 c 5.38546,8.06154 -3.62387,7.54879 127.17801,7.23815 115.83926,-0.27509 117.16983,-0.30266 120.0978,-2.48889 z"
     id="path3" /><path
     style="fill:none;fill-opacity:1;stroke-width:1.08786;fill-rule:nonzero"
     d="m 116.0143,603.21648 c -0.3618,-12.8639 -0.97153,-51.53721 -1.35496,-85.94067 -0.38343,-34.40346 -1.00518,-66.15627 -1.38166,-70.56178 l -0.68452,-8.01002 -38.062128,41.07242 -38.062127,41.07242 -7.984942,-8.58562 C 24.092244,507.54114 18.299615,501.13641 15.611454,498.03051 l -4.887565,-5.6471 40.842391,-44.19345 c 45.814344,-49.57333 52.86795,-57.43676 52.86795,-58.93768 0,-1.45145 -16.06686,-19.3996 -57.546685,-64.28486 -19.505778,-21.10719 -35.581528,-38.73046 -35.72389,-39.16284 -0.275695,-0.83735 24.818336,-28.13831 25.513815,-27.75765 0.226014,0.1237 16.767393,17.82799 36.75862,39.34286 19.991226,21.51488 36.88998,39.45311 37.55279,39.86276 0.6628,0.40963 1.43814,0.51175 1.72297,0.22692 0.28482,-0.28482 0.86417,-43.72407 1.28744,-96.53167 l 0.76958,-96.01382 62.27979,72.15716 c 34.25388,39.68643 62.27979,72.51959 62.27979,72.96256 0,1.13357 -9.62069,13.16149 -38.60914,48.2697 -33.29109,40.31916 -41.1234,50.37701 -40.4729,51.97317 0.29853,0.73249 9.96431,12.10158 21.4795,25.26465 64.27916,73.47774 62.45664,71.25799 60.77245,74.01844 -0.84598,1.38654 -26.50443,29.53816 -57.01881,62.55915 -30.51438,33.02097 -58.47921,63.28454 -62.14407,67.25237 l -6.66337,7.21422 z m 59.71795,-91.40006 22.4977,-23.95293 -4.69821,-5.14723 c -19.03931,-20.85898 -40.73704,-43.76612 -41.45543,-43.76612 -0.47533,0 -0.86424,21.78432 -0.86424,48.40961 0,29.10287 0.4033,48.40962 1.01125,48.40962 0.55617,0 11.1352,-10.77882 23.50893,-23.95295 z m -7.93387,-188.45105 c 21.11662,-22.40051 29.10366,-31.30971 29.10366,-32.46387 0,-1.01297 -21.64894,-25.24055 -37.3353,-41.78234 l -8.25278,-8.70285 -0.051,49.22551 c -0.0298,28.75471 0.35927,49.22551 0.93548,49.22551 0.54254,0 7.56249,-6.97588 15.59989,-15.50196 z"
     id="path4" /></svg>
